<?xml version="1.0" encoding="utf-8"?>
<!-- Generator: Adobe Illustrator 16.0.0, SVG Export Plug-In . SVG Version: 6.00 Build 0)  -->
<!DOCTYPE svg PUBLIC "-//W3C//DTD SVG 1.1//EN" "http://www.w3.org/Graphics/SVG/1.1/DTD/svg11.dtd">
<svg version="1.1" id="Layer_1" xmlns="http://www.w3.org/2000/svg" xmlns:xlink="http://www.w3.org/1999/xlink" x="0px" y="0px"
	 width="1600px" height="1200px" viewBox="0 0 1600 1200" enable-background="new 0 0 1600 1200" xml:space="preserve">
<rect fill="#1C6C91" width="1600" height="1200"/>
<polygon fill="#064188" points="774,1064 345,1113 800,1200 "/>
<polygon fill="#083C85" points="1600,600 1481,1011 1600,1200 "/>
<polygon fill="#024185" points="0,600 0,1200 50,1060 "/>
<polygon fill="#08317E" points="1399,1093 1117,1086 1600,1200 "/>
<polygon fill="#083782" points="1117,1086 800,1200 1600,1200 "/>
<polygon fill="#0D5C96" points="29,187 0,0 30,367 "/>
<polygon fill="#126296" points="29,187 141,214 180,89 "/>
<polygon fill="#0C5D9B" points="0,0 0,600 30,367 "/>
<polygon fill="#0F6098" points="0,0 29,187 180,89 "/>
<polygon fill="#0B5D9E" points="345,716 237,881 596,772 "/>
<polygon fill="#10629A" points="29,187 30,367 141,214 "/>
<polygon fill="#0C5C9A" points="30,367 0,600 99,532 "/>
<polygon fill="#095B99" points="99,532 0,600 237,881 "/>
<polygon fill="#065093" points="0,600 50,1060 237,881 "/>
<polygon fill="#075598" points="237,881 345,1113 596,772 "/>
<polygon fill="#186795" points="141,214 248,533 323,251 "/>
<polygon fill="#186794" points="180,89 141,214 323,251 "/>
<polygon fill="#0D5E98" points="30,367 99,532 248,533 "/>
<polygon fill="#13669D" points="141,214 30,367 248,533 "/>
<polygon fill="#146798" points="248,533 345,716 565,478 "/>
<polygon fill="#06337D" points="50,1060 0,1200 345,1113 "/>
<polygon fill="#04458A" points="237,881 50,1060 345,1113 "/>
<polygon fill="#216F92" points="663,354 789,662 1014,381 "/>
<polygon fill="#0B5D9B" points="99,532 237,881 345,716 "/>
<polygon fill="#0D629A" points="248,533 99,532 345,716 "/>
<polygon fill="#1C6A94" points="323,251 248,533 565,478 "/>
<polygon fill="#12679B" points="565,478 345,716 596,772 "/>
<polygon fill="#27738F" points="602,85 663,354 735,174 "/>
<polygon fill="#1A6690" points="0,0 602,85 800,0 "/>
<polygon fill="#216B8C" points="602,85 735,174 800,0 "/>
<polygon fill="#166594" points="0,0 180,89 602,85 "/>
<polygon fill="#206C94" points="180,89 323,251 602,85 "/>
<polygon fill="#236F90" points="323,251 565,478 663,354 "/>
<polygon fill="#267391" points="602,85 323,251 663,354 "/>
<polygon fill="#085195" points="596,772 345,1113 774,1064 "/>
<polygon fill="#0A609E" points="789,662 596,772 890,893 "/>
<polygon fill="#06579A" points="596,772 774,1064 890,893 "/>
<polygon fill="#17699C" points="565,478 596,772 789,662 "/>
<polygon fill="#1F6E95" points="663,354 565,478 789,662 "/>
<polygon fill="#092E77" points="1481,1011 1399,1093 1600,1200 "/>
<polygon fill="#05347F" points="345,1113 0,1200 800,1200 "/>
<polygon fill="#085495" points="1462,578 1430,818 1600,600 "/>
<polygon fill="#165B90" points="1483,88 1531,291 1600,0 "/>
<polygon fill="#085C9C" points="1080,674 890,893 1094,950 "/>
<polygon fill="#297691" points="735,174 663,354 1014,381 "/>
<polygon fill="#115793" points="1600,0 1531,291 1600,600 "/>
<polygon fill="#27738D" points="735,174 1014,381 1108,83 "/>
<polygon fill="#166A97" points="1014,381 789,662 1080,674 "/>
<polygon fill="#0A609E" points="789,662 890,893 1080,674 "/>
<polygon fill="#236F8F" points="800,0 735,174 1108,83 "/>
<polygon fill="#256F8C" points="1108,83 1014,381 1253,232 "/>
<polygon fill="#094C91" points="1094,950 890,893 1117,1086 "/>
<polygon fill="#1F6891" points="800,0 1108,83 1600,0 "/>
<polygon fill="#084A8F" points="890,893 774,1064 1117,1086 "/>
<polygon fill="#084088" points="774,1064 800,1200 1117,1086 "/>
<polygon fill="#1B6290" points="1108,83 1483,88 1600,0 "/>
<polygon fill="#095C9C" points="1080,674 1430,818 1462,578 "/>
<polygon fill="#083F85" points="1094,950 1117,1086 1399,1093 "/>
<polygon fill="#0F5A9A" points="1531,291 1462,578 1600,600 "/>
<polygon fill="#0C4E94" points="1430,818 1481,1011 1600,600 "/>
<polygon fill="#085899" points="1080,674 1094,950 1430,818 "/>
<polygon fill="#094A90" points="1094,950 1399,1093 1430,818 "/>
<polygon fill="#13679A" points="1014,381 1080,674 1462,578 "/>
<polygon fill="#1A6995" points="1253,232 1014,381 1462,578 "/>
<polygon fill="#094087" points="1430,818 1399,1093 1481,1011 "/>
<polygon fill="#236C91" points="1108,83 1253,232 1483,88 "/>
<polygon fill="#1B6392" points="1483,88 1253,232 1531,291 "/>
<polygon fill="#146094" points="1253,232 1462,578 1531,291 "/>
</svg>
